<?xml version="1.0" encoding="utf-8"?>
<!-- Generator: Adobe Illustrator 22.1.0, SVG Export Plug-In . SVG Version: 6.00 Build 0)  -->
<svg version="1.1" id="Capa_1" xmlns="http://www.w3.org/2000/svg" xmlns:xlink="http://www.w3.org/1999/xlink" x="0px" y="0px"
	 viewBox="0 0 512 512" style="enable-background:new 0 0 512 512;" xml:space="preserve">
<style type="text/css">
	.st0{fill:#FFFFFF;}
</style>
<g>
	<g>
		<path class="st0" d="M81.5,311.3c-45,0-81.5,36.5-81.5,81.5s36.5,81.5,81.5,81.5s81.5-36.5,81.5-81.5S126.4,311.3,81.5,311.3z
			 M81.5,456.7c-35.3,0-64-28.7-64-64s28.7-64,64-64s64,28.7,64,64C145.5,428,116.7,456.7,81.5,456.7z"/>
	</g>
</g>
<g>
	<g>
		<path class="st0" d="M256,346.2c-45,0-81.5,36.5-81.5,81.5s36.5,81.5,81.5,81.5c45,0,81.5-36.5,81.5-81.5
			C337.5,382.6,301,346.2,256,346.2z M256,491.6c-35.3,0-64-28.7-64-64c0-35.3,28.7-64,64-64c35.3,0,64,28.7,64,64
			C320,462.9,291.3,491.6,256,491.6z"/>
	</g>
</g>
<g>
	<g>
		<path class="st0" d="M256,2.9c-77.1,0-139.6,62.5-139.6,139.6c0,77.1,62.5,139.6,139.6,139.6s139.6-62.5,139.6-139.6
			C395.6,65.4,333.1,2.9,256,2.9z M256,264.7c-67.4,0-122.2-54.8-122.2-122.2S188.6,20.4,256,20.4c67.4,0,122.2,54.8,122.2,122.2
			C378.2,209.9,323.4,264.7,256,264.7z"/>
	</g>
</g>
<g>
	<g>
		<path class="st0" d="M430.5,311.3c-45,0-81.5,36.5-81.5,81.5s36.5,81.5,81.5,81.5s81.5-36.5,81.5-81.5S475.5,311.3,430.5,311.3z
			 M430.5,456.7c-35.3,0-64-28.7-64-64s28.7-64,64-64c35.3,0,64,28.7,64,64C494.5,428,465.8,456.7,430.5,456.7z"/>
	</g>
</g>
<g>
	<g>
		<path class="st0" d="M286.9,134.2c10-8.7,16.4-21.5,16.4-35.8c0-26.1-21.2-47.3-47.3-47.3c-26.2,0-47.3,21.2-47.3,47.3
			c0,14.3,6.4,27.1,16.4,35.8c-27.8,11.2-47.3,37.2-47.3,69.4c0,2.3,0.9,4.5,2.6,6.2c1.6,1.6,3.9,2.6,6.2,2.6h139
			c2.3,0,4.5-0.9,6.2-2.6c1.6-1.6,2.6-3.9,2.6-6.2C334.2,171.4,314.7,145.4,286.9,134.2z M234.9,77.3c5.4-5.4,12.9-8.8,21.1-8.8
			c8.3,0,15.7,3.3,21.1,8.8c5.4,5.4,8.8,12.9,8.8,21.1c0,8.3-3.3,15.7-8.8,21.1c-5.4,5.4-12.9,8.7-21.1,8.8
			c-8.3,0-15.7-3.3-21.1-8.8c-5.4-5.4-8.8-12.9-8.8-21.1C226.1,90.1,229.4,82.7,234.9,77.3z M196,194.9c2-12.5,8.1-22.3,17.1-31.3
			c11-11,26.2-17.8,43-17.8c16.8,0,32,6.8,43,17.8c9,9,15.1,18.9,17.1,31.3L196,194.9L196,194.9z"/>
	</g>
</g>
<g>
	<g>
		<circle class="st0" cx="256.3" cy="328.8" r="8.7"/>
	</g>
</g>
<g>
	<g>
		<circle class="st0" cx="256.3" cy="299.7" r="8.7"/>
	</g>
</g>
<g>
	<g>
		<circle class="st0" cx="378" cy="314.3" r="8.7"/>
	</g>
</g>
<g>
	<g>
		<circle class="st0" cx="359.3" cy="292" r="8.7"/>
	</g>
</g>
<g>
	<g>
		<circle class="st0" cx="340.6" cy="269.8" r="8.7"/>
	</g>
</g>
<g>
	<g>
		
			<ellipse transform="matrix(7.088897e-02 -0.9975 0.9975 7.088897e-02 -189.1626 426.929)" class="st0" cx="134.6" cy="315" rx="8.7" ry="8.7"/>
	</g>
</g>
<g>
	<g>
		<circle class="st0" cx="153.3" cy="292.7" r="8.7"/>
	</g>
</g>
<g>
	<g>
		<circle class="st0" cx="172" cy="270.4" r="8.7"/>
	</g>
</g>
<g>
	<g>
		<path class="st0" d="M472,411.4c-2.8-8.2-8.5-14.9-15.8-19.6c-1-0.6-2-1.1-3.1-1.7c3.3-4.6,5.2-10.1,5.2-16.2
			c0-15.4-12.5-27.9-28-28c-15.4,0-27.9,12.5-28,28c0,6,2,11.6,5.2,16.2c-1,0.6-2.1,1-3.1,1.7c-7.3,4.7-13,11.4-15.8,19.6
			c-1.5,4.6,0.9,9.5,5.5,11.1c4.6,1.5,9.5-0.9,11.1-5.5c1.3-3.9,4.3-7.7,8.7-10.5c4.4-2.8,10-4.6,16.3-4.6c6.3,0,12,1.8,16.3,4.6
			c4.4,2.8,7.3,6.6,8.7,10.5c1.5,4.6,6.5,7,11.1,5.5C471.1,420.9,473.6,416,472,411.4z M430.5,384.4c-5.8,0-10.5-4.7-10.5-10.5
			c0-5.8,4.7-10.5,10.5-10.5c5.8,0,10.5,4.7,10.5,10.5C441,379.7,436.3,384.4,430.5,384.4z"/>
	</g>
</g>
<g>
	<g>
		<path class="st0" d="M297.7,446.3c-2.8-8.2-8.5-14.9-15.8-19.6c-1-0.6-2-1.1-3.1-1.7c3.3-4.6,5.2-10.1,5.2-16.2
			c0-15.4-12.5-27.9-28-28c-15.4,0-27.9,12.5-27.9,28c0,6,2,11.6,5.2,16.2c-1,0.6-2.1,1-3.1,1.7c-7.3,4.7-13,11.4-15.8,19.6
			c-1.5,4.6,0.9,9.5,5.5,11.1c4.6,1.5,9.5-0.9,11.1-5.5c1.3-3.9,4.3-7.7,8.7-10.5c4.4-2.8,10-4.6,16.3-4.6c6.3,0,12,1.8,16.3,4.6
			c4.4,2.8,7.3,6.6,8.7,10.5c1.5,4.6,6.5,7,11.1,5.5C296.8,455.8,299.2,450.9,297.7,446.3z M256.1,419.4c-5.8,0-10.5-4.7-10.5-10.5
			c0-5.8,4.7-10.5,10.5-10.5c5.8,0,10.5,4.7,10.5,10.5C266.6,414.6,261.9,419.3,256.1,419.4z"/>
	</g>
</g>
<g>
	<g>
		<path class="st0" d="M123.1,411.4c-2.8-8.2-8.5-14.9-15.8-19.6c-1-0.6-2-1.1-3.1-1.7c3.3-4.6,5.2-10.1,5.2-16.2
			c0-15.4-12.5-27.9-28-28c-15.4,0-28,12.5-28,28c0,6,2,11.6,5.2,16.2c-1,0.6-2.1,1-3.1,1.7c-7.3,4.7-13,11.4-15.8,19.6
			c-1.5,4.6,0.9,9.5,5.5,11.1c4.6,1.5,9.5-0.9,11.1-5.5c1.3-3.9,4.3-7.7,8.7-10.5c4.4-2.8,10-4.6,16.3-4.6c6.3,0,12,1.8,16.3,4.6
			c4.4,2.8,7.3,6.6,8.7,10.5c1.5,4.6,6.5,7,11.1,5.5C122.2,420.9,124.7,416,123.1,411.4z M81.6,384.4c-5.8,0-10.5-4.7-10.5-10.5
			c0-5.8,4.7-10.5,10.5-10.5c5.8,0,10.5,4.7,10.5,10.5C92.1,379.7,87.4,384.4,81.6,384.4z"/>
	</g>
</g>
</svg>
