<?xml version="1.0" encoding="utf-8"?>
<!-- Generator: Adobe Illustrator 22.1.0, SVG Export Plug-In . SVG Version: 6.00 Build 0)  -->
<svg version="1.1" id="Capa_1" xmlns="http://www.w3.org/2000/svg" xmlns:xlink="http://www.w3.org/1999/xlink" x="0px" y="0px"
	 viewBox="0 0 512 512" style="enable-background:new 0 0 512 512;" xml:space="preserve">
<style type="text/css">
	.st0{fill:#FFFFFF;}
</style>
<g>
	<g>
		<path class="st0" d="M473.5,267.5c-5.7,0-10.9,1.4-15.5,3.5c-7-9-18-14.8-30.3-14.8c-6.4,0-12.2,1.7-17.2,4.2l-0.5,0.3l-15.7,9.3
			c-7-8.4-17.6-13.8-29.4-13.8c-6.4,0-12.2,1.7-17.2,4.2l-0.6,0.4l-60.2,36.9c-13.6-4-28.7-8.4-43.3-12.6
			c-15.4-4.4-30.2-8.4-42-11.4c-5.9-1.5-11.1-2.7-15.4-3.6c-2.1-0.4-4-0.8-5.7-1c-1.7-0.3-3.1-0.4-4.7-0.4c-1.2,0-2.3,0.1-3.5,0.3
			c-4.4,0.6-10.7,1.9-18.2,3.7c-15.2,3.6-34.6,8.8-45.3,11.7V266c0-12.6-10.3-22.9-22.9-22.9H22.9C10.3,243.2,0,253.4,0,266v177.3
			c0,12.6,10.3,22.9,22.9,22.9h62.9c12.6,0,22.9-10.3,22.9-22.9v-13.8c13.6,3,43.7,9.5,75.5,16c21.5,4.4,43.7,8.8,62.1,12.2
			c9.2,1.7,17.4,3.1,24.1,4c6.8,1,11.8,1.6,15.7,1.6c3,0,5.8-0.6,8.9-1.4c5.7-1.6,12.2-4.3,19.6-7.9c25.9-12.6,63-36.2,98-59.6
			c35-23.3,67.7-46.4,83.7-57.4c10-6.9,15.7-18.6,15.7-31C512,284.8,494.8,267.6,473.5,267.5z M91.5,443.4c0,3.1-2.6,5.7-5.7,5.7
			H22.9c-3.1,0-5.7-2.6-5.7-5.7V266c0-3.1,2.6-5.7,5.7-5.7h62.9c3.1,0,5.7,2.6,5.7,5.7V443.4z M486.6,322.9
			c-19.7,13.6-63.8,44.7-106.5,72.5c-21.3,13.9-42.3,26.8-59.5,36.3c-8.6,4.7-16.3,8.5-22.4,11.1c-3.1,1.3-5.7,2.2-7.9,2.8
			c-2.1,0.6-3.7,0.8-4.3,0.8c-1.9,0-6.8-0.5-13.2-1.4c-22.5-3.3-64.7-11.7-101.1-19.3c-18.2-3.8-34.9-7.4-47.1-10
			c-7.1-1.5-12.6-2.7-16-3.5V302c1.7-0.5,3.9-1.1,6.5-1.8c9-2.5,22.8-6.1,35.2-9.2c6.2-1.5,12-2.9,16.7-3.9c2.3-0.5,4.3-0.9,5.9-1.1
			c1.5-0.3,2.7-0.3,2.7-0.3c0,0,0.9,0.1,2.2,0.2c4.7,0.7,14.4,3,26.3,6.1c35.6,9.3,91.8,26.1,114.5,33c7.9,2.4,15,5.9,19.6,10.3
			c2.3,2.2,4.1,4.5,5.3,7c1.2,2.5,1.9,5.2,1.9,8.6c0,6.7-2.7,12.8-7.1,17.2c-4.4,4.4-10.3,7-17,7.1l-22.1-2.2l-75.6-9.7
			c-4.7-0.6-9,2.7-9.6,7.4c-0.6,4.7,2.7,9,7.4,9.6l75.8,9.7l23.5,2.3h0.4c22.9,0,41.4-18.6,41.5-41.5c0-5.8-1.3-11.2-3.5-15.9
			c-3.4-7.1-8.9-12.7-15.1-16.9c-6.2-4.2-13.2-7.2-20.4-9.4c-4-1.2-9-2.7-14.7-4.5l46.6-28.5c3-1.5,6.1-2.3,9.4-2.3
			c5.5,0,10.6,2.1,14.3,5.6l-23,13.6c-4.1,2.4-5.4,7.7-3,11.8c2.4,4.1,7.7,5.4,11.8,3l53.4-31.7c3-1.5,6.1-2.4,9.4-2.4
			c5.9,0,11.2,2.5,15.1,6.4l-62.2,36.9c-4.1,2.4-5.4,7.7-3,11.8c2.4,4.1,7.7,5.4,11.8,3l67.2-39.9c0.7-0.1,1.3-0.3,2-0.5
			c1.4-0.6,2.5-1.5,3.4-2.6l2.1-1.2c3-1.5,6.1-2.4,9.4-2.4c5.9,0,11.2,2.4,15.1,6.2c3.9,3.9,6.2,9.2,6.2,15.1
			C494.8,313.2,491.5,319.5,486.6,322.9z"/>
	</g>
</g>
<g>
	<g>
		<path class="st0" d="M310.1,143.4c-7.5-5.5-16.3-8.6-24.9-11c-1.2-0.3-2.3-0.6-3.5-0.9V79.1c8.4,1.3,14.6,3.9,18.7,7.1
			c2.9,2.3,4.9,4.8,6.3,7.7c1.4,2.9,2.1,6.1,2.1,9.8c0,4.7,3.8,8.6,8.6,8.6s8.6-3.8,8.6-8.6c0-6-1.2-11.9-3.8-17.2
			c-3.8-8-10.6-14.6-19.4-18.8c-6.1-3-13.2-4.8-21.1-5.8v-7.5c0-4.7-3.8-8.6-8.6-8.6c-4.7,0-8.6,3.8-8.6,8.6v7.1
			c-6.2,0.5-11.8,1.7-16.7,3.6c-9.7,3.7-16.8,9.9-21.2,17c-4.4,7-6.3,14.7-6.3,21.7c0,7.3,1.7,13.9,5.1,19.3
			c2.9,4.7,6.8,8.4,11.1,11.2c7.5,4.9,16.1,7.6,24.7,9.8c1.1,0.3,2.3,0.6,3.4,0.9v56.3c-8.3-0.9-14.7-3.6-19-7.2
			c-5.3-4.5-8-10.3-8-17.7c0-4.7-3.8-8.6-8.6-8.6s-8.6,3.8-8.6,8.6c-0.1,12,5.1,23.2,14.1,30.8c7.8,6.6,18.1,10.5,30.1,11.5v7.5
			c0,4.7,3.8,8.6,8.6,8.6c4.7,0,8.6-3.8,8.6-8.6v-7.8c9.7-1,18.8-3.4,26.5-8.2c5.3-3.3,9.9-7.9,13-13.7c3.1-5.8,4.7-12.6,4.7-20.1
			c0-7.8-1.7-14.8-4.9-20.6C318.2,150.7,314.4,146.6,310.1,143.4z M264.5,127.1c-8.4-2.2-15.6-4.9-20-8.2c-2.4-1.8-4-3.7-5.2-6
			c-1.2-2.3-1.9-5.2-1.9-9.3c0-5.3,1.9-11.6,6.7-16.4c2.4-2.4,5.5-4.6,9.8-6.2c2.9-1.1,6.5-1.9,10.6-2.4L264.5,127.1L264.5,127.1z
			 M306.1,188.2c-1.2,2.2-2.8,4.1-4.8,5.7c-3,2.4-7.3,4.4-12.5,5.7c-2.2,0.5-4.6,1-7.1,1.3v-51.7c5.2,1.5,10.1,3.2,13.9,5.3
			c4.3,2.3,7.5,4.9,9.6,8.1c2.1,3.2,3.5,7.3,3.5,13.6C308.7,181.5,307.7,185.3,306.1,188.2z"/>
	</g>
</g>
</svg>
