<?xml version="1.0" encoding="utf-8"?>
<!-- Generator: Adobe Illustrator 22.1.0, SVG Export Plug-In . SVG Version: 6.00 Build 0)  -->
<svg version="1.1" id="Capa_1" xmlns="http://www.w3.org/2000/svg" xmlns:xlink="http://www.w3.org/1999/xlink" x="0px" y="0px"
	 viewBox="0 0 512 512" style="enable-background:new 0 0 512 512;" xml:space="preserve">
<style type="text/css">
	.st0{fill:#FFFFFF;}
</style>
<g>
	<g>
		<path class="st0" d="M392.2,374.6c-2.4-0.8-4.8-1.6-7.3-2.5v-35.8c6.6,1.3,10.5,4.5,10.8,4.7c3.1,2.7,7.8,2.3,10.5-0.8
			c2.7-3.1,2.4-7.9-0.7-10.6c-0.5-0.4-8.1-6.9-20.6-8.6v-3c0-4.1-3.4-7.5-7.5-7.5s-7.5,3.4-7.5,7.5v3.5c-1.3,0.3-2.6,0.6-3.9,0.9
			c-11.5,3.3-20,12.7-22.2,24.6c-1.9,10.5,1.7,20.6,9.5,26.3c4.2,3.1,9.4,5.9,16.6,8.9v45.2c-6.7-0.4-11.1-1.8-18.5-6.3
			c-3.5-2.2-8.1-1.1-10.3,2.5s-1.1,8.1,2.5,10.3c10.3,6.3,17.2,8.1,26.3,8.6v3.9c0,4.1,3.4,7.5,7.5,7.5s7.5-3.4,7.5-7.5v-4.4
			c17.6-3.2,28.7-17.2,30.9-30.9C418.4,394.6,409.2,380.3,392.2,374.6L392.2,374.6z M362.2,361.4c-3.7-2.8-4.3-7.8-3.6-11.5
			c0.9-4.8,4.3-10.7,11.3-12.7V366C367,364.5,364.4,363,362.2,361.4z M401,408.8c-1.2,7.3-6.6,15.1-16.1,17.9V388
			c0.8,0.3,1.7,0.6,2.5,0.9C397.4,392.2,402.5,399.6,401,408.8L401,408.8z"/>
		<path class="st0" d="M370.7,56c0-7.5-6.1-13.5-13.5-13.5H58.4c-7.5,0-13.5,6.1-13.5,13.5v20.2c0,4.1,3.4,7.5,7.5,7.5
			s7.5-3.4,7.5-7.5V57.5h295.9V130H59.8v-18.7c0-4.1-3.4-7.5-7.5-7.5s-7.5,3.4-7.5,7.5v20.2c0,7.5,6.1,13.5,13.5,13.5h298.8
			c7.5,0,13.5-6.1,13.5-13.5L370.7,56z"/>
		<path class="st0" d="M109.2,193.3c0-6.8-5.5-12.3-12.3-12.3H59.8c-6.8,0-12.3,5.5-12.3,12.3v37.1c0,6.8,5.5,12.3,12.3,12.3h37.1
			c6.8,0,12.3-5.5,12.3-12.3V193.3z M94.2,227.7H62.5V196h31.7V227.7z"/>
		<path class="st0" d="M195.5,193.3c0-6.8-5.5-12.3-12.3-12.3h-37.1c-6.8,0-12.3,5.5-12.3,12.3v37.1c0,6.8,5.5,12.3,12.3,12.3h37.1
			c6.8,0,12.3-5.5,12.3-12.3L195.5,193.3z M180.5,227.7h-31.7V196h31.7V227.7z"/>
		<path class="st0" d="M232.4,181c-6.8,0-12.3,5.5-12.3,12.3v37.1c0,6.8,5.5,12.3,12.3,12.3h37.1c6.8,0,12.3-5.5,12.3-12.3v-37.1
			c0-6.8-5.5-12.3-12.3-12.3H232.4z M266.8,227.7h-31.7V196h31.7V227.7z"/>
		<path class="st0" d="M355.8,181h-37.1c-6.8,0-12.3,5.5-12.3,12.3v37.1c0,6.8,5.5,12.3,12.3,12.3h37.1c6.8,0,12.3-5.5,12.3-12.3
			v-37.1C368.1,186.5,362.6,181,355.8,181z M353.1,227.7h-31.7V196h31.7V227.7z"/>
		<path class="st0" d="M109.2,284.6c0-6.8-5.5-12.3-12.3-12.3H59.8c-6.8,0-12.3,5.5-12.3,12.3v37.1c0,6.8,5.5,12.3,12.3,12.3h37.1
			c6.8,0,12.3-5.5,12.3-12.3V284.6z M94.2,319H62.5v-31.7h31.7V319z"/>
		<path class="st0" d="M195.5,284.6c0-6.8-5.5-12.3-12.3-12.3h-37.1c-6.8,0-12.3,5.5-12.3,12.3v37.1c0,6.8,5.5,12.3,12.3,12.3h37.1
			c6.8,0,12.3-5.5,12.3-12.3L195.5,284.6z M180.5,319h-31.7v-31.7h31.7V319z"/>
		<path class="st0" d="M183.2,363.6h-37.1c-6.8,0-12.3,5.5-12.3,12.3V413c0,6.8,5.5,12.3,12.3,12.3h37.1c6.8,0,12.3-5.5,12.3-12.3
			v-37.1C195.5,369.1,190,363.6,183.2,363.6z M180.5,410.3h-31.7v-31.7h31.7V410.3z"/>
		<path class="st0" d="M378.1,252.8c-38.2,0-72.6,16.6-96.3,43v-11.1c0-6.8-5.5-12.3-12.3-12.3h-37.1c-6.8,0-12.3,5.5-12.3,12.3
			v37.1c0,6.8,5.5,12.3,12.3,12.3h25.5c-3.8,9.4-6.5,19.3-8,29.5h-17.5c-6.8,0-12.3,5.5-12.3,12.3V413c0,6.8,5.5,12.3,12.3,12.3
			h23.4c17.8,50.4,65.9,86.7,122.3,86.7c71.5,0,129.6-58.1,129.6-129.6S449.6,252.8,378.1,252.8L378.1,252.8z M235.1,319v-31.7h31.7
			V316c-0.6,1-1.2,2-1.7,3H235.1z M235.1,410.3v-31.7h13.5c0,1.3-0.1,2.5-0.1,3.8c0,9.6,1.1,18.9,3,27.9H235.1z M378.1,497
			c-63.2,0-114.6-51.4-114.6-114.6s51.4-114.6,114.6-114.6s114.6,51.4,114.6,114.6S441.3,497,378.1,497z"/>
		<path class="st0" d="M378.1,282.9c-54.9,0-99.5,44.6-99.5,99.5s44.6,99.5,99.5,99.5s99.5-44.6,99.5-99.5S433,282.9,378.1,282.9z
			 M378.1,466.9c-46.6,0-84.5-37.9-84.5-84.5s37.9-84.5,84.5-84.5s84.5,37.9,84.5,84.5S424.7,466.9,378.1,466.9z"/>
		<path class="st0" d="M96.9,363.6H59.8c-6.8,0-12.3,5.5-12.3,12.3V413c0,6.8,5.5,12.3,12.3,12.3h37.1c6.8,0,12.3-5.5,12.3-12.3
			v-37.1C109.2,369.1,103.7,363.6,96.9,363.6z M94.2,410.3H62.5v-31.7h31.7V410.3z"/>
		<path class="st0" d="M269.4,475.4H48c-15.9,0-28.7-12.9-28.7-28.7V43.7C19.3,27.9,32.1,15,48,15h319.6c15.9,0,28.7,12.9,28.7,28.7
			v184.1c0,4.1,3.4,7.5,7.5,7.5s7.5-3.4,7.5-7.5V43.7c0-24.1-19.6-43.7-43.7-43.7H48C23.9,0,4.3,19.6,4.3,43.7v402.9
			c0,24.1,19.6,43.7,43.7,43.7h221.4c4.1,0,7.5-3.4,7.5-7.5S273.6,475.4,269.4,475.4L269.4,475.4z"/>
	</g>
</g>
</svg>
