<?xml version="1.0" encoding="utf-8"?>
<!-- Generator: Adobe Illustrator 22.1.0, SVG Export Plug-In . SVG Version: 6.00 Build 0)  -->
<svg version="1.1" id="Layer_1" xmlns="http://www.w3.org/2000/svg" xmlns:xlink="http://www.w3.org/1999/xlink" x="0px" y="0px"
	 viewBox="0 0 512 512" style="enable-background:new 0 0 512 512;" xml:space="preserve">
<style type="text/css">
	.st0{fill:#FFFFFF;}
</style>
<g>
	<g>
		<path class="st0" d="M41.8,512h229c2,0,3.9-0.8,5.3-2.2l37.3-37.1l70,8.9l12.1,23.4c2.3,4.5,8.6,5.6,12.2,1.6l23.8-26.4
			c1.3-1.5,2-3.4,1.9-5.4l-1.3-26.9c7.3-5.3,12.4-13.8,13.6-22.8l9.2-71.4c13,6.1,28.9-2.4,30.8-16.8l11.9-92.2
			c2.1-16.5-7.9-32.9-23.7-38.4c3-17.8-7.9-35.8-26.1-39.6l12.3-98.4c1.9-14.9-9.2-29.1-24.1-30.9l-295.6-37
			c-15.2-1.9-29.1,8.9-31,24c0,0.2,0,0.3,0,0.5l-5,40H41.8c-15.3,0-27.8,12.4-27.8,27.7v289.5c0.3,9.8,14.6,10,15,0V92.4
			c0-7,5.7-12.7,12.8-12.7h297.9c7,0,12.8,5.7,12.8,12.7v315.7h-61.4c-15.3,0-27.8,12.4-27.8,27.7V497H41.8c-7,0-12.8-5.7-12.8-12.7
			v-62.4c0-4.1-3.4-7.5-7.5-7.5s-7.5,3.4-7.5,7.5v62.4C14.1,499.6,26.5,512,41.8,512L41.8,512z M418.3,472.3l-14.5,16.1l-10-19.2
			l5.5-17.6c5.7,2.4,12,3.2,18.1,2.3L418.3,472.3z M478.6,227.3c3.4,4.4,4.9,9.9,4.2,15.4l-11.9,92.2c-1.1,8.4-14.4,6.5-13.3-1.7
			l3.1-24.3c1.2-9.6-13.6-11.5-14.9-1.9l-15,116.1c-1.3,10-10.7,17.3-20.7,16s-17.3-10.7-16-20.7l22-170.5l36.8,4.7l-1.9,14.9
			c-1.2,9.6,13.6,11.5,14.9,1.9l6.1-47.7C474.5,223,476.8,224.9,478.6,227.3L478.6,227.3z M459.4,201.7c-1.5,12-3.1,24-4.6,36
			L418,233l4.6-36c0.6-4.9,3.1-9.3,7.1-12.3c3.9-3,8.8-4.3,13.7-3.7C453.6,182.3,460.7,191.6,459.4,201.7z M339.7,64.7H119.6
			l4.8-38.4c0-0.1,0-0.3,0-0.4c1-6.8,7.3-11.6,14.2-10.7l295.6,37c6.9,0.9,12,7.3,11.1,14.2l-12.6,100.6c-4.4,1.1-8.5,3.1-12.2,6
			c-7.1,5.5-11.6,13.4-12.8,22.3l-5.6,43.4v0l-22.9,177.9c-1.2,9,1.6,18.5,7.3,25.6l-7.5,23.9l-52.3-6.6l38.4-38.3
			c1.3-1.5,2.2-3.2,2.2-5.3V92.4C367.5,77.1,355,64.7,339.7,64.7L339.7,64.7z M291.1,423.1h50.8l-63.5,63.3v-50.6
			C278.3,428.8,284.1,423.1,291.1,423.1z"/>
		<path class="st0" d="M322.9,165.4v-50.8c0-4.1-3.4-7.5-7.5-7.5H65.1c-4.1,0-7.5,3.4-7.5,7.5v50.8c0,4.1,3.4,7.5,7.5,7.5h250.3
			C319.6,172.9,322.9,169.6,322.9,165.4z M307.9,157.9H72.6v-35.8h235.3V157.9z"/>
		<path class="st0" d="M308.3,211.1H73.2c-9.9,0.3-9.9,14.7,0,15h235.1C318.3,225.8,318.3,211.5,308.3,211.1z"/>
		<path class="st0" d="M308.3,262.1H153.4c-9.9,0.3-9.9,14.7,0,15h154.9C318.3,276.8,318.3,262.5,308.3,262.1z"/>
		<path class="st0" d="M315.8,320.6c0-4.1-3.4-7.5-7.5-7.5H153.4c-9.9,0.3-9.9,14.7,0,15h154.9C312.5,328.1,315.8,324.7,315.8,320.6
			z"/>
		<path class="st0" d="M90.2,326.9c-7.1,0.1-9.3-0.3-14.8-3.9c-3.5-2.3-8.1-1.3-10.4,2.1c-2.3,3.5-1.3,8.1,2.1,10.4
			c5.9,3.9,10.3,5.5,15.6,6.1c-1.5,15.1,17.2,14.2,15-0.7c10.9-3.1,17.9-12.6,19.5-22c2.1-12.4-4.6-23.6-16.6-27.9
			c-6.1-2.2-21.3-5.4-19.6-14.4c0.5-2.5,2.2-5.6,5.5-6.6c4.7-1.4,9.9-0.5,13.4,2.1c0,0,5,7,11.6,0.9c6.1-5.7-1.4-11.8-1.4-11.8
			c-2.3-2.2-6.7-4.9-12.3-6.1c1.3-14.4-16.8-13.7-15,0.5c-8.4,2.4-14.8,9.8-16.4,18.3c-1.5,8.1,1.1,15.9,6.8,20.4
			c4.7,3.7,11.2,6.9,22.5,10.9c7.5,2.7,7.3,8.7,6.9,11.2C101.6,321.4,97.4,326.8,90.2,326.9z"/>
	</g>
	<path class="st0" d="M73.2,462.4h140.4c9.9-0.3,9.9-14.7,0-15H73.2C63.3,447.7,63.3,462,73.2,462.4z"/>
</g>
</svg>
